<?xml version="1.0" standalone="no"?>
<!DOCTYPE svg PUBLIC "-//W3C//DTD SVG 20010904//EN"
 "http://www.w3.org/TR/2001/REC-SVG-20010904/DTD/svg10.dtd">
<svg version="1.0" xmlns="http://www.w3.org/2000/svg"
 width="500.000000pt" height="500.000000pt" viewBox="0 0 500.000000 500.000000"
 preserveAspectRatio="xMidYMid meet">

<g transform="translate(0.000000,500.000000) scale(0.100000,-0.100000)"
fill="#000000" stroke="none">
<path d="M2230 4385 c-232 -39 -452 -131 -630 -263 -537 -397 -722 -1143 -430
-1733 200 -404 566 -684 1020 -780 152 -32 431 -33 577 -1 298 65 526 192 738
413 325 339 459 769 379 1224 -45 260 -212 575 -406 762 -158 153 -437 308
-634 354 -174 39 -456 51 -614 24z m560 -98 c240 -57 479 -187 643 -351 184
-184 313 -428 373 -706 25 -116 26 -361 1 -480 -17 -80 -68 -244 -89 -283 -8
-16 -41 -17 -465 -17 -320 0 -467 3 -495 12 -53 16 -121 77 -147 133 -26 55
-31 150 -10 183 12 20 22 22 91 22 l77 0 3 -32 c2 -21 8 -33 18 -33 11 0 16
16 20 65 4 49 7 59 12 40 4 -14 8 -42 8 -62 l0 -38 63 0 64 0 -5 56 c-3 41 -2
55 7 50 6 -4 11 -29 11 -57 0 -37 4 -49 15 -49 10 0 15 11 15 35 0 32 3 35 28
35 57 0 70 -9 74 -53 4 -37 1 -46 -29 -73 -56 -53 -42 -135 27 -164 57 -24
130 31 130 98 0 33 -42 92 -66 92 -11 0 -14 16 -14 65 l0 65 -37 1 c-21 1 -55
0 -75 -1 -34 -1 -38 1 -38 22 0 23 -1 24 -115 25 l-115 0 0 -25 0 -25 -86 6
c-47 2 -87 7 -90 9 -9 10 28 67 53 84 24 15 59 18 260 21 l233 4 71 -68 c38
-37 74 -70 80 -72 6 -1 16 4 22 14 11 13 37 17 152 21 76 3 143 8 148 11 5 3
7 13 4 23 -4 15 1 18 28 17 97 -3 139 115 63 178 -27 23 -39 26 -72 22 -76
-10 -110 -89 -69 -158 11 -18 14 -32 8 -38 -6 -5 -74 -11 -153 -12 l-143 -2
-52 51 -53 52 -262 0 c-144 0 -262 4 -262 9 0 33 31 36 409 41 l376 5 50 31
c58 35 63 47 64 171 1 92 1 93 30 108 38 19 61 52 61 88 0 82 -77 130 -149 92
-60 -30 -66 -126 -11 -167 28 -20 30 -26 30 -90 0 -68 -1 -70 -45 -117 -25
-27 -58 -54 -73 -60 -18 -8 -126 -10 -340 -9 l-314 3 103 109 c57 59 120 119
141 132 34 22 37 26 26 44 -7 11 -18 20 -23 20 -6 0 -105 -92 -220 -204 -115
-113 -212 -203 -214 -200 -18 18 81 134 334 392 l190 194 5 142 c3 77 3 145
-1 150 -4 5 -20 5 -35 2 l-27 -7 5 -134 5 -134 -32 -31 -32 -31 -6 68 c-4 37
-7 114 -7 171 0 95 1 102 20 102 25 0 32 38 28 160 l-3 95 -65 0 -65 0 -3
-127 -3 -128 26 0 26 0 -3 -200 -3 -200 -27 -27 -28 -28 0 132 c0 107 3 132
15 137 19 7 19 50 1 65 -38 32 -103 -9 -78 -49 8 -13 12 -69 12 -176 l0 -156
-113 -116 c-62 -65 -128 -133 -145 -152 -25 -27 -32 -31 -32 -17 0 25 30 67
102 145 32 35 77 86 98 114 l40 50 0 193 c0 185 1 194 20 200 11 4 27 20 36
37 13 26 14 38 5 69 -32 105 -171 87 -171 -22 0 -33 6 -47 30 -69 l30 -28 0
-182 0 -183 -37 -46 c-20 -25 -41 -50 -46 -56 -6 -6 -7 53 -4 164 5 136 9 177
22 191 35 38 8 100 -43 100 -54 0 -80 -60 -42 -95 19 -17 20 -31 20 -211 l0
-192 -40 -42 -40 -42 0 341 c0 234 -3 342 -11 347 -8 4 -8 9 0 17 6 6 11 21
11 34 0 13 5 23 10 23 6 0 10 -11 10 -25 0 -14 5 -25 10 -25 6 0 10 11 10 25
0 14 5 25 10 25 6 0 10 -11 10 -25 0 -16 6 -25 15 -25 9 0 15 9 15 25 0 20 5
25 25 25 16 0 25 6 25 15 0 8 -9 15 -19 15 -28 0 -36 18 -9 22 28 4 36 28 9
28 -12 0 -21 6 -21 15 0 8 6 12 14 9 8 -3 17 -1 21 5 4 7 -3 11 -17 12 l-23 0
23 9 c27 12 29 30 2 30 -24 0 -27 17 -3 22 10 2 17 14 17 31 2 25 -1 28 -21
24 -20 -4 -23 0 -23 25 0 37 -24 33 -28 -5 -5 -37 -22 -34 -22 4 0 17 -4 28
-10 24 -5 -3 -10 -17 -10 -31 0 -33 -18 -31 -22 3 -4 39 -28 42 -28 4 0 -17
-4 -31 -10 -31 -5 0 -10 11 -10 25 0 16 -6 25 -15 25 -9 0 -15 -9 -15 -25 0
-14 -4 -25 -10 -25 -5 0 -10 14 -10 30 0 20 -5 30 -15 30 -9 0 -15 -9 -15 -25
0 -18 -5 -25 -20 -25 -11 0 -20 -4 -20 -10 0 -5 7 -10 15 -10 8 0 15 -4 15
-10 0 -5 -7 -10 -15 -10 -21 0 -19 -18 3 -23 13 -4 11 -5 -5 -6 -16 -1 -23 -7
-23 -20 0 -30 11 -51 26 -51 8 0 14 -4 14 -10 0 -5 -9 -10 -20 -10 -27 0 -26
-20 2 -28 l22 -5 -23 -9 c-27 -10 -23 -32 7 -36 16 -2 22 -10 22 -28 0 -15 6
-24 15 -24 9 0 15 9 15 25 0 34 18 32 22 -2 4 -38 22 -32 28 9 3 22 8 29 13
21 5 -7 3 -72 -2 -145 -6 -73 -11 -253 -11 -402 l0 -270 -35 34 -35 34 0 158
c0 129 3 163 16 183 15 23 15 27 0 49 -19 30 -49 40 -76 26 -26 -14 -26 -52 0
-75 13 -12 18 -25 14 -38 -3 -11 -6 -71 -6 -133 1 -63 -2 -114 -7 -114 -4 0
-32 25 -61 56 -40 42 -55 66 -61 98 -10 57 -14 231 -4 245 11 19 -23 61 -49
61 -34 0 -60 -33 -47 -59 6 -11 17 -24 25 -28 9 -5 15 -41 20 -108 l7 -100
-51 50 -50 49 0 193 c0 160 2 193 14 193 8 0 26 14 40 31 61 72 16 179 -74
179 -34 0 -47 -6 -71 -31 -24 -25 -29 -40 -29 -78 1 -49 12 -71 48 -90 22 -12
22 -14 22 -215 l0 -204 199 -201 c151 -154 200 -209 203 -232 4 -29 0 -26 -71
43 -167 161 -383 383 -396 407 -15 30 -85 94 -93 86 -9 -9 14 -48 57 -97 l42
-48 -208 -2 c-207 -3 -208 -3 -211 -25 l-3 -23 219 0 219 0 44 -47 43 -47 -29
-8 c-23 -6 -34 -3 -50 12 -26 24 -48 25 -69 4 -21 -20 -20 -53 1 -76 20 -22
41 -23 65 -1 13 12 34 16 76 14 46 -2 62 -7 85 -28 15 -15 27 -30 27 -34 0 -4
-108 -5 -241 -3 l-241 5 -44 -36 c-24 -20 -44 -41 -44 -46 0 -16 36 -10 63 11
24 19 40 20 296 20 l271 0 32 -30 33 -29 -285 -1 -285 0 -100 -100 -100 -100
-102 0 c-56 0 -114 5 -127 12 -22 9 -29 8 -46 -7 -23 -21 -25 -43 -6 -67 18
-24 52 -23 78 2 19 17 36 20 128 20 l106 0 55 58 c29 31 75 76 101 100 l48 42
277 -3 c153 -1 285 -6 294 -10 9 -5 22 -20 28 -34 10 -23 10 -25 -6 -18 -10 5
-138 10 -284 13 l-266 4 -68 -63 c-37 -35 -76 -70 -86 -77 -22 -15 -24 -35 -6
-50 10 -8 32 6 92 61 l79 72 219 3 c121 2 231 1 244 -3 30 -7 83 -62 83 -86 0
-23 -15 -24 -72 -5 -24 8 -60 17 -82 21 -37 6 -41 4 -89 -46 -41 -42 -59 -54
-91 -59 -28 -3 -42 -10 -44 -22 -3 -15 5 -18 53 -18 55 0 56 1 107 55 39 42
58 55 79 55 16 0 29 -3 29 -7 0 -10 -75 -105 -109 -137 -28 -27 -34 -28 -87
-22 -58 7 -84 -3 -84 -30 0 -24 33 -32 104 -25 75 8 66 2 174 125 34 39 49 49
74 49 41 0 58 -25 58 -90 0 -113 -76 -228 -168 -252 -26 -8 -195 -10 -498 -9
l-458 3 -29 69 c-16 38 -41 119 -55 180 -23 96 -26 133 -26 276 0 249 36 403
142 612 126 248 332 458 562 573 143 72 264 113 405 140 127 23 429 14 565
-18z m-180 -117 c0 -5 -7 -10 -15 -10 -8 0 -15 5 -15 10 0 6 7 10 15 10 8 0
15 -4 15 -10z m-102 -52 c21 -21 14 -66 -12 -83 -51 -34 -111 30 -71 75 20 22
65 26 83 8z m435 -25 c-7 -2 -21 -2 -30 0 -10 3 -4 5 12 5 17 0 24 -2 18 -5z
m-885 -48 c13 -29 7 -52 -19 -66 -41 -22 -80 31 -52 70 20 29 57 27 71 -4z
m890 4 c-12 -7 -24 -7 -35 0 -15 9 -12 10 17 10 29 0 32 -1 18 -10z m-5 -36
c-7 -2 -21 -2 -30 0 -10 3 -4 5 12 5 17 0 24 -2 18 -5z m-6 -29 c-3 -3 -12 -4
-19 -1 -8 3 -5 6 6 6 11 1 17 -2 13 -5z m-179 -96 c3 -25 0 -28 -27 -28 -34 0
-54 35 -30 51 26 17 54 6 57 -23z m-148 -163 c0 -8 -7 -15 -15 -15 -8 0 -15 7
-15 15 0 8 7 15 15 15 8 0 15 -7 15 -15z m958 -237 c21 -21 14 -54 -14 -69
-23 -12 -27 -12 -40 6 -25 34 -11 75 26 75 9 0 21 -5 28 -12z m112 -453 c26
-32 -13 -81 -47 -59 -35 22 -23 74 17 74 10 0 23 -7 30 -15z m-763 -252 c-2
-16 -4 -3 -4 27 0 30 2 43 4 28 2 -16 2 -40 0 -55z m-40 0 c-2 -16 -4 -5 -4
22 0 28 2 40 4 28 2 -13 2 -35 0 -50z m281 -142 c8 -5 12 -21 10 -37 -3 -32
-38 -45 -64 -24 -40 34 9 90 54 61z m-738 -200 c0 -26 -3 -76 -7 -111 -6 -58
-10 -66 -59 -120 l-53 -57 -3 -103 c-2 -69 -7 -105 -15 -107 -15 -5 -33 59
-33 120 l0 49 -101 -106 -101 -106 -82 0 c-75 0 -85 -2 -106 -25 -13 -14 -34
-25 -47 -25 -52 0 -82 72 -46 112 20 22 76 24 93 3 9 -11 33 -15 89 -15 l76 0
161 168 c158 164 162 169 174 227 16 76 40 145 51 145 5 0 9 -22 9 -49z m124
-34 c14 -46 26 -91 26 -101 0 -11 74 -93 167 -187 l167 -169 74 0 c59 0 79 4
99 20 51 40 113 11 113 -52 0 -66 -68 -91 -116 -43 -23 23 -33 25 -107 25
l-82 0 -112 112 -113 113 0 -75 c0 -78 -9 -108 -30 -95 -8 5 -11 37 -9 104 l3
96 -50 55 c-49 53 -51 58 -62 140 -23 164 -9 188 32 57z m-227 -10 c-29 -48
-323 -332 -359 -346 -12 -4 -79 -9 -148 -10 -113 -1 -126 -3 -139 -21 -19 -27
-46 -25 -70 6 -16 21 -26 25 -47 20 -18 -5 -32 -2 -45 10 -29 26 -23 34 26 34
26 0 59 7 76 15 21 12 34 13 48 5 11 -5 80 -10 153 -10 l133 0 105 97 c58 53
146 138 195 188 69 70 91 87 93 73 2 -10 -8 -38 -21 -61z m329 33 c39 -42 49
-47 64 -38 14 9 30 8 70 -5 65 -21 178 -22 204 -2 27 21 60 19 81 -5 15 -16
31 -20 86 -20 47 0 71 4 76 14 11 18 45 34 61 29 15 -6 42 -55 42 -78 0 -18
-35 -55 -53 -55 -7 0 -23 9 -35 20 -17 16 -35 20 -86 20 -56 0 -69 -3 -90 -25
-32 -32 -52 -32 -84 3 -24 26 -35 29 -113 35 -61 4 -97 12 -125 28 l-39 21 45
-43 c25 -23 90 -85 144 -136 l99 -93 146 -1 c80 -1 185 -4 234 -8 l88 -6 -17
-24 -17 -24 -224 6 c-123 4 -230 10 -237 14 -31 17 -348 328 -356 347 -12 34
-21 76 -16 76 3 0 26 -22 52 -50z m-929 -56 c9 -23 128 -19 160 6 31 24 51 25
82 4 18 -13 42 -15 122 -12 54 2 99 1 99 -2 0 -4 -9 -16 -20 -28 -18 -19 -32
-22 -94 -22 -68 0 -73 -2 -93 -29 -32 -42 -60 -46 -94 -11 -25 24 -38 29 -93
31 -57 3 -68 1 -90 -20 -30 -28 -49 -23 -71 19 -18 34 -10 58 27 84 23 16 54
7 65 -20z m757 -26 c3 -13 8 -88 11 -168 l6 -145 72 -72 c39 -40 79 -73 88
-73 27 0 69 -40 69 -65 0 -13 -10 -36 -23 -51 -19 -21 -29 -26 -50 -20 -39 9
-57 33 -57 75 0 31 -8 44 -49 85 -39 39 -49 44 -55 31 -3 -9 -6 -75 -6 -147 0
-128 0 -129 -22 -126 l-23 3 1 260 c0 273 10 435 25 435 5 0 11 -10 13 -22z
m-889 -2 c18 -13 18 -14 -3 -25 -12 -6 -73 -11 -151 -11 -119 0 -131 2 -141
19 -5 11 -10 22 -10 25 0 3 64 6 143 6 105 0 148 -4 162 -14z m2065 5 c0 -39
-9 -41 -156 -41 -136 0 -144 1 -144 19 0 11 8 22 18 24 33 9 282 7 282 -2z
m-1842 -107 c12 -8 22 -26 22 -39 0 -41 -69 -72 -97 -44 -7 7 -69 10 -176 10
-156 -2 -167 -1 -176 18 -6 11 -11 22 -11 25 0 3 77 6 170 6 157 0 173 2 192
20 26 24 46 25 76 4z m1593 -24 c93 0 169 -3 169 -6 0 -3 -5 -14 -10 -25 -10
-18 -23 -19 -169 -19 -129 0 -161 -3 -171 -15 -18 -22 -33 -19 -63 13 -31 33
-33 48 -10 74 16 18 17 17 50 -2 31 -18 52 -20 204 -20z m-1088 -342 c27 -36
15 -78 -26 -92 -59 -21 -112 59 -67 104 28 28 67 23 93 -12z"/>
<path d="M2170 4170 c-15 -28 4 -60 34 -60 32 0 50 24 42 55 -5 20 -13 25 -36
25 -19 0 -33 -7 -40 -20z"/>
<path d="M2710 4176 c-28 -35 11 -93 48 -70 35 22 22 84 -18 84 -10 0 -23 -7
-30 -14z"/>
<path d="M1784 4015 c-12 -30 5 -65 31 -65 31 0 58 36 44 62 -12 22 -67 25
-75 3z"/>
<path d="M3092 4018 c-18 -18 -15 -42 8 -63 18 -17 21 -17 45 -1 38 25 32 70
-10 74 -17 2 -36 -3 -43 -10z"/>
<path d="M2184 3940 c-32 -13 -54 -50 -54 -88 0 -25 9 -43 33 -67 34 -34 34
-35 41 -152 8 -149 15 -177 46 -181 22 -4 23 -2 10 13 -11 13 -15 50 -15 151
0 134 0 134 27 157 51 41 57 106 14 146 -26 24 -72 34 -102 21z m66 -65 c29
-35 -19 -70 -52 -38 -18 19 -18 21 -3 37 20 20 39 21 55 1z"/>
<path d="M1590 3891 c0 -26 -4 -30 -32 -33 -38 -3 -44 -21 -10 -26 31 -5 28
-22 -4 -22 -31 0 -28 -23 4 -28 33 -5 26 -22 -9 -22 -17 0 -28 -4 -24 -10 3
-5 17 -10 31 -10 30 0 32 -17 2 -22 -13 -2 -24 -11 -26 -22 -3 -16 0 -18 22
-12 19 5 26 3 26 -9 0 -9 -9 -15 -21 -15 -30 0 -18 -24 14 -28 21 -3 27 -9 27
-28 0 -15 6 -24 15 -24 9 0 15 9 15 25 0 16 6 25 15 25 9 0 15 -9 15 -25 0
-14 4 -25 9 -25 5 0 12 11 15 25 4 14 11 25 16 25 6 0 10 -11 10 -25 0 -16 6
-25 15 -25 9 0 15 9 15 25 0 31 17 33 22 3 4 -33 38 -37 38 -5 0 18 8 28 28
35 26 10 27 11 5 17 -32 10 -30 34 2 27 18 -3 25 0 25 12 0 10 -9 16 -25 16
-16 0 -25 6 -25 16 0 12 6 15 25 10 18 -5 25 -2 25 9 0 9 -9 15 -25 15 -16 0
-25 6 -25 15 0 9 9 15 25 15 16 0 25 6 25 16 0 12 -7 15 -25 12 -30 -6 -34 12
-5 19 27 7 20 29 -8 25 -16 -2 -21 3 -24 24 -4 39 -27 42 -34 5 -8 -40 -24
-40 -24 -1 0 17 -5 30 -10 30 -6 0 -13 -13 -16 -30 -4 -16 -13 -30 -20 -30 -9
0 -14 11 -14 30 0 17 -4 30 -10 30 -5 0 -10 -13 -10 -30 0 -20 -5 -30 -15 -30
-10 0 -15 10 -15 30 0 20 -5 30 -15 30 -10 0 -15 -10 -15 -29z m62 -117 c-22
-39 24 -82 55 -52 10 11 11 21 4 41 -13 32 3 37 20 6 26 -50 -40 -101 -81 -64
-28 25 -26 85 2 85 5 0 5 -7 0 -16z"/>
<path d="M3176 3893 c-3 -3 -6 -21 -6 -40 0 -26 -4 -33 -20 -33 -11 0 -20 -7
-20 -15 0 -8 9 -15 20 -15 11 0 20 -4 20 -10 0 -5 -9 -10 -20 -10 -11 0 -20
-7 -20 -15 0 -8 9 -15 20 -15 28 0 25 -17 -5 -24 -14 -4 -25 -11 -25 -16 0 -6
11 -10 25 -10 16 0 25 -6 25 -15 0 -8 -4 -15 -10 -15 -5 0 -10 -7 -10 -16 0
-8 4 -13 9 -9 5 3 11 -7 13 -22 4 -39 28 -42 28 -4 0 17 5 31 10 31 6 0 10
-14 10 -31 0 -38 24 -35 28 4 5 37 22 34 22 -4 0 -20 4 -29 13 -26 6 2 12 16
12 30 -1 15 5 27 11 27 8 0 12 -11 11 -26 -1 -15 4 -29 11 -31 8 -3 12 6 12
26 0 38 18 41 22 4 2 -16 8 -28 13 -28 6 0 11 12 13 28 2 19 9 27 23 27 10 0
19 7 19 15 0 8 -9 15 -20 15 -11 0 -20 5 -20 10 0 6 11 10 25 10 16 0 25 6 25
15 0 9 -9 15 -25 15 -33 0 -32 18 2 22 39 4 42 28 4 28 -38 0 -41 17 -4 22 39
4 42 28 4 28 -29 0 -31 2 -31 40 0 29 -4 40 -15 40 -9 0 -15 -9 -15 -25 0 -14
-4 -25 -10 -25 -5 0 -10 12 -10 26 0 31 -23 28 -28 -4 -2 -12 -8 -22 -13 -22
-6 0 -9 10 -7 22 2 11 -3 23 -9 25 -8 3 -13 -5 -13 -21 0 -15 -6 -26 -13 -26
-8 0 -13 10 -13 21 1 12 -5 24 -11 26 -8 3 -13 -5 -13 -21 0 -14 -4 -26 -10
-26 -5 0 -10 9 -10 19 0 21 -13 34 -24 24z m97 -113 c-26 -11 -29 -36 -7 -65
11 -15 18 -17 32 -9 22 14 27 51 10 71 -11 14 -11 15 1 12 26 -9 36 -36 25
-66 -13 -38 -65 -45 -88 -11 -9 12 -16 28 -16 35 0 17 29 43 48 42 12 0 11 -3
-5 -9z"/>
<path d="M1416 3664 c-29 -29 -12 -64 31 -64 27 0 42 42 23 65 -16 19 -35 19
-54 -1z"/>
<path d="M3465 3649 c-10 -30 18 -58 40 -39 22 18 15 54 -12 58 -15 2 -23 -3
-28 -19z"/>
<path d="M1342 3544 c-59 -30 -77 -94 -42 -151 43 -71 155 -64 180 12 33 100
-50 183 -138 139z m83 -75 c12 -18 -4 -57 -26 -64 -24 -8 -59 19 -59 46 0 26
39 50 61 38 10 -5 21 -14 24 -20z"/>
<path d="M3146 3503 c-3 -3 -6 -17 -6 -30 0 -18 -5 -23 -25 -23 -30 0 -33 -16
-5 -25 24 -8 27 -23 4 -21 -25 2 -29 -24 -5 -31 27 -7 27 -23 1 -23 -11 0 -20
-7 -20 -15 0 -9 9 -15 25 -15 33 0 32 -18 -2 -26 -23 -6 -24 -8 -10 -19 9 -7
14 -15 10 -18 -3 -4 1 -7 10 -7 12 0 17 -9 17 -30 0 -36 17 -40 26 -5 8 33 24
32 25 -2 l1 -28 10 28 c12 34 28 35 28 2 0 -14 5 -25 10 -25 6 0 10 11 10 25
0 14 5 25 10 25 6 0 10 -11 10 -25 0 -16 6 -25 15 -25 9 0 15 9 15 25 0 14 5
25 10 25 6 0 10 -11 10 -25 0 -16 6 -25 15 -25 10 0 15 10 15 30 0 24 4 30 23
31 l22 0 -22 9 c-29 12 -30 22 -1 18 11 -2 23 3 25 10 3 7 -4 12 -16 12 -30 0
-35 18 -6 22 33 4 33 22 0 26 -32 4 -33 22 0 22 16 0 25 6 25 15 0 9 -9 15
-25 15 -31 0 -33 17 -3 22 32 5 35 28 4 28 -21 0 -26 5 -26 25 0 16 -6 25 -16
25 -12 0 -15 -7 -12 -25 4 -17 1 -25 -8 -25 -8 0 -14 11 -14 25 0 36 -30 33
-31 -2 -1 -27 -1 -27 -10 5 -12 40 -29 42 -29 2 0 -16 -4 -30 -10 -30 -5 0
-10 8 -10 18 0 9 -4 23 -9 31 -7 11 -12 6 -19 -20 -9 -31 -10 -32 -11 -7 -1
27 -13 43 -25 31z m126 -120 c20 -18 24 -63 6 -81 -17 -17 -48 -15 -70 5 -24
21 -23 42 4 70 26 27 35 28 60 6z"/>
<path d="M3223 3364 c-3 -8 -1 -26 5 -39 13 -28 38 -24 47 6 12 37 -38 69 -52
33z"/>
<path d="M1698 3343 l-3 -26 -100 -1 c-98 -1 -100 -2 -103 -25 l-4 -24 106 5
c80 4 108 1 119 -9 10 -10 28 -12 70 -7 l57 7 0 53 0 54 -69 0 c-68 0 -70 -1
-73 -27z"/>
<path d="M3625 3277 c-21 -16 -15 -61 9 -70 25 -10 56 5 62 29 11 45 -31 69
-71 41z"/>
<path d="M2942 3244 c-28 -19 -30 -74 -4 -97 42 -38 102 -8 102 51 0 32 -29
62 -60 62 -9 0 -26 -7 -38 -16z m58 -50 c0 -16 -26 -19 -35 -4 -3 6 -4 14 0
20 8 13 35 1 35 -16z"/>
<path d="M1248 3223 c-2 -20 -9 -29 -25 -31 -31 -5 -29 -22 2 -22 16 0 25 -6
25 -15 0 -9 -9 -15 -25 -15 -14 0 -25 -4 -25 -10 0 -5 11 -10 25 -10 31 0 33
-17 3 -22 -13 -2 -23 -7 -23 -13 0 -5 10 -11 23 -13 12 -2 22 -9 22 -16 0 -9
-9 -12 -25 -8 -18 3 -25 0 -25 -12 0 -10 9 -16 25 -16 21 0 25 -5 25 -30 0
-20 5 -30 15 -30 9 0 15 9 15 25 0 14 5 25 10 25 6 0 10 -11 10 -25 0 -14 4
-25 9 -25 5 0 12 11 15 25 8 33 26 32 26 -1 0 -32 23 -27 29 7 l4 24 6 -25 c4
-14 15 -26 25 -28 15 -3 18 1 14 22 -4 18 -1 26 8 26 8 0 14 -11 14 -25 0 -16
6 -25 16 -25 11 0 15 8 12 28 -3 23 1 27 25 30 30 4 27 22 -4 22 -10 0 -19 7
-19 15 0 8 9 15 20 15 11 0 20 7 20 15 0 8 -9 15 -20 15 -11 0 -20 5 -20 10 0
6 9 10 20 10 11 0 20 5 20 11 0 6 -9 13 -20 16 -26 7 -26 21 0 25 31 5 29 23
-3 26 -25 3 -28 7 -23 29 6 20 3 24 -11 21 -10 -2 -19 -13 -21 -26 -5 -30 -22
-28 -22 3 0 14 -4 25 -10 25 -5 0 -10 -9 -10 -19 0 -21 -19 -40 -21 -22 -1 6
-2 16 -3 23 -2 21 -26 20 -26 -1 0 -12 -4 -21 -10 -21 -5 0 -10 9 -10 20 0 11
-7 20 -15 20 -9 0 -15 -9 -15 -25 0 -14 -4 -25 -10 -25 -5 0 -10 11 -10 25 0
35 -28 33 -32 -2z m157 -97 c25 -38 5 -66 -44 -66 -26 0 -41 5 -45 16 -9 23
-7 52 3 58 5 3 8 -9 7 -27 -1 -30 1 -32 34 -32 41 0 52 25 24 56 -9 10 -12 19
-6 19 6 0 19 -11 27 -24z"/>
<path d="M1913 2907 c-13 -16 -29 -24 -51 -24 -23 0 -42 -8 -60 -27 -24 -24
-27 -33 -24 -86 2 -57 1 -60 -28 -75 -112 -58 -22 -226 94 -174 67 31 73 132
10 172 -35 22 -35 23 -32 78 6 83 51 116 93 69 24 -26 60 -25 79 2 21 30 20
43 -6 68 -29 26 -52 25 -75 -3z m-83 -271 c6 -8 10 -25 8 -38 -5 -34 -60 -38
-75 -5 -14 30 1 57 31 57 13 0 29 -7 36 -14z"/>
<path d="M1477 2813 c-4 -3 -7 -17 -7 -30 0 -30 -24 -26 -28 5 -5 30 -22 28
-22 -3 0 -14 -4 -25 -10 -25 -5 0 -10 11 -10 25 0 14 -4 25 -10 25 -5 0 -10
-11 -10 -25 0 -15 -5 -25 -12 -24 -7 1 -28 1 -47 0 -29 -1 -32 -3 -21 -16 7
-8 19 -15 26 -15 8 0 14 -4 14 -10 0 -5 -9 -10 -20 -10 -11 0 -20 -4 -20 -10
0 -5 9 -10 20 -10 11 0 20 -4 20 -10 0 -5 -7 -10 -15 -10 -8 0 -15 -6 -15 -12
0 -7 -3 -24 -7 -37 -5 -21 -3 -23 15 -19 27 7 28 0 5 -18 -16 -12 -15 -13 10
-14 23 0 27 -4 27 -30 0 -39 27 -41 32 -2 4 33 22 32 26 -3 4 -32 22 -33 22 0
0 16 6 25 15 25 9 0 15 -10 15 -26 0 -31 23 -28 28 4 5 30 22 28 22 -3 0 -16
6 -25 15 -25 10 0 15 10 15 30 0 27 2 29 30 24 37 -8 41 12 5 26 -33 13 -32
28 3 26 36 -1 45 18 10 22 -35 4 -37 22 -2 22 31 0 28 23 -4 28 -33 5 -28 31
6 29 42 -3 35 27 -8 33 -31 4 -35 9 -38 38 -2 17 -7 32 -12 32 -12 0 -23 -37
-15 -50 3 -5 -1 -10 -9 -10 -11 0 -16 9 -16 30 0 29 -9 38 -23 23z m-45 -133
c-3 -20 2 -37 13 -50 24 -26 1 -26 -25 0 -24 24 -25 38 -3 62 21 23 20 23 15
-12z m78 -19 c0 -17 -18 -41 -31 -41 -4 0 -2 12 6 27 8 15 11 31 8 36 -3 6 -1
7 5 3 7 -4 12 -15 12 -25z"/>
<path d="M3536 2803 c-3 -3 -6 -17 -6 -30 0 -12 -4 -23 -10 -23 -5 0 -10 11
-10 25 0 14 -4 25 -10 25 -5 0 -12 -11 -16 -25 -3 -14 -10 -25 -15 -25 -5 0
-9 11 -9 25 0 16 -6 25 -15 25 -9 0 -15 -10 -15 -26 0 -14 -4 -23 -10 -19 -5
3 -10 15 -10 26 0 11 -7 19 -16 19 -12 0 -15 -6 -10 -25 6 -23 3 -25 -24 -25
-23 0 -30 -4 -30 -20 0 -17 5 -19 25 -14 20 5 24 3 19 -10 -3 -9 -15 -16 -25
-16 -10 0 -19 -7 -19 -15 0 -14 12 -19 33 -16 4 0 7 -6 7 -14 0 -8 -9 -15 -20
-15 -11 0 -20 -4 -20 -10 0 -5 11 -10 25 -10 16 0 25 -6 25 -15 0 -9 -9 -15
-25 -15 -14 0 -25 -4 -25 -10 0 -5 13 -10 28 -10 26 0 28 -3 24 -30 -3 -23 0
-30 12 -30 11 0 16 9 16 30 0 17 5 30 10 30 6 0 10 -14 10 -31 0 -38 24 -35
28 4 4 35 32 36 32 2 0 -14 5 -25 10 -25 6 0 10 9 10 19 0 11 5 23 10 26 6 4
10 -5 10 -19 0 -16 6 -26 15 -26 9 0 15 9 15 25 0 14 5 25 10 25 6 0 10 -11
10 -25 0 -23 8 -29 27 -22 4 1 6 12 5 25 -3 19 1 22 27 22 37 0 41 15 6 24
-33 8 -32 26 1 26 16 0 24 5 21 13 -2 6 -13 12 -25 12 -28 1 -29 19 -2 23 29
5 25 32 -5 32 -14 0 -25 5 -25 10 0 6 11 10 25 10 23 0 29 8 23 28 -2 4 -14 7
-28 7 -21 0 -25 4 -22 28 3 19 -1 27 -12 27 -10 0 -16 -9 -16 -25 0 -14 -4
-25 -10 -25 -5 0 -10 11 -10 24 0 26 -12 40 -24 29z m-36 -112 c0 -5 -9 -11
-21 -14 -15 -4 -20 -12 -17 -29 2 -19 9 -23 38 -23 26 0 36 5 38 19 2 11 -4
26 -14 33 -16 12 -16 13 -1 13 10 0 22 -11 29 -25 16 -36 -4 -55 -58 -55 -38
0 -44 3 -50 25 -4 18 -1 32 11 45 19 21 45 27 45 11z"/>
<path d="M2439 4103 c-19 -22 2 -48 37 -48 30 0 46 27 27 46 -17 17 -51 18
-64 2z"/>
<path d="M1787 1926 c-3 -8 1 -22 8 -33 13 -17 15 -17 31 -1 9 9 14 24 11 32
-8 20 -43 21 -50 2z"/>
<path d="M3104 1925 c-8 -19 3 -35 26 -35 19 0 30 17 23 38 -6 17 -42 15 -49
-3z"/>
<path d="M3010 2336 c0 -8 4 -17 9 -20 11 -7 33 18 24 27 -12 12 -33 7 -33 -7z"/>
<path d="M3270 2334 c0 -8 5 -12 10 -9 6 3 10 10 10 16 0 5 -4 9 -10 9 -5 0
-10 -7 -10 -16z"/>
<path d="M1660 2340 c0 -5 7 -10 15 -10 8 0 15 5 15 10 0 6 -7 10 -15 10 -8 0
-15 -4 -15 -10z"/>
<path d="M1904 2339 c-3 -6 -2 -15 4 -21 13 -13 32 -2 32 18 0 16 -26 19 -36
3z"/>
<path d="M2645 1830 c-8 -14 3 -30 21 -30 8 0 14 9 14 20 0 21 -24 28 -35 10z"/>
<path d="M800 1689 c0 -5 8 -21 17 -35 25 -38 23 -340 -3 -383 -16 -27 -16
-31 -1 -54 24 -37 26 -415 3 -449 -9 -12 -16 -25 -16 -28 0 -3 125 -5 277 -5
153 0 287 -4 297 -9 17 -8 18 -7 10 15 -4 13 -8 61 -9 107 0 45 -1 82 -3 82
-2 0 -15 -9 -30 -20 -25 -19 -40 -20 -187 -18 l-160 3 0 120 0 120 89 3 c75 2
94 0 115 -16 l26 -19 0 104 c0 56 -2 103 -5 103 -3 0 -14 -7 -24 -15 -20 -15
-138 -21 -184 -9 -22 6 -23 9 -21 120 l2 114 126 2 c172 3 211 0 238 -17 31
-21 34 -19 23 11 -14 37 -12 111 4 142 l14 27 -263 -3 c-154 -2 -278 1 -299 6
-23 7 -36 7 -36 1z"/>
<path d="M1980 1495 c0 -4 9 -18 20 -32 19 -24 20 -41 20 -333 0 -294 -1 -308
-20 -325 -11 -10 -20 -21 -20 -24 0 -3 43 -6 95 -6 52 0 95 1 95 3 0 2 -9 15
-20 30 -18 25 -20 40 -18 137 2 82 6 110 16 110 7 0 34 -38 59 -85 75 -140
175 -303 208 -338 25 -27 41 -34 94 -43 81 -13 143 -3 176 27 39 36 32 44 -38
44 -104 0 -139 24 -216 150 -92 153 -147 263 -132 268 27 9 71 55 91 98 42 86
14 217 -58 272 -34 26 -42 27 -181 32 -80 3 -152 9 -158 13 -7 5 -13 5 -13 2z
m273 -127 c37 -19 46 -40 47 -101 0 -50 -4 -61 -26 -82 -22 -21 -37 -25 -85
-25 l-59 0 0 103 c0 57 3 107 7 110 11 11 93 8 116 -5z"/>
<path d="M3340 1488 c0 -4 9 -24 19 -44 13 -24 18 -47 14 -65 l-6 -29 29 15
c30 16 71 19 98 9 14 -5 16 -39 16 -273 0 -240 -2 -269 -18 -296 l-19 -30 93
0 93 0 -20 31 c-18 29 -19 52 -19 303 l0 271 54 0 c35 0 58 -5 66 -15 19 -23
26 -18 22 18 -2 19 5 48 17 71 12 22 20 40 18 41 -1 0 -83 -3 -182 -9 -115 -6
-197 -5 -227 1 -27 5 -48 6 -48 1z"/>
<path d="M1710 1484 c-8 -3 -34 -12 -58 -21 -29 -10 -53 -28 -73 -56 l-29 -40
0 -219 c0 -238 4 -262 56 -309 85 -78 254 -53 297 43 9 18 18 82 21 142 4 60
13 120 20 135 l14 26 -117 0 -116 0 15 -57 c14 -56 16 -58 47 -58 l33 0 0 -61
c0 -54 -3 -64 -29 -90 -32 -32 -47 -35 -86 -17 -48 22 -55 51 -55 243 l0 177
29 29 c37 37 75 38 127 3 27 -18 39 -23 42 -14 3 7 19 29 38 49 l32 37 -56 26
c-58 28 -125 42 -152 32z"/>
<path d="M3073 1473 c-53 -18 -108 -80 -117 -131 -9 -57 -7 -372 4 -416 12
-54 38 -87 90 -113 99 -51 223 -6 266 96 20 49 20 430 0 470 -32 60 -117 112
-181 110 -11 0 -39 -7 -62 -16z m121 -119 l26 -27 0 -189 0 -190 -29 -29 c-36
-36 -60 -37 -100 -3 l-31 26 0 198 0 199 26 20 c36 29 76 27 108 -5z"/>
<path d="M3954 1481 c-49 -12 -103 -50 -122 -84 -12 -24 -17 -54 -16 -115 1
-76 4 -86 31 -119 23 -30 45 -42 113 -63 46 -15 89 -36 97 -46 22 -30 16 -99
-11 -131 -19 -22 -32 -28 -66 -28 -38 0 -47 6 -81 44 -22 24 -39 38 -39 32 0
-6 -19 -32 -41 -56 -23 -25 -40 -46 -38 -48 12 -7 78 -42 103 -55 95 -49 236
-10 281 79 20 38 20 170 0 209 -18 35 -80 72 -157 94 -73 21 -88 36 -88 92 0
53 33 94 76 94 26 0 78 -31 101 -60 8 -10 12 -11 13 -3 0 7 16 30 35 52 19 21
35 41 35 44 0 11 -124 66 -160 71 -19 2 -49 1 -66 -3z"/>
<path d="M2592 1459 c-25 -12 -55 -39 -70 -62 -27 -40 -27 -42 -30 -249 -3
-188 -1 -212 16 -251 29 -66 80 -100 156 -105 72 -3 120 19 169 80 l30 38 1
222 c1 250 -2 262 -70 315 -51 38 -140 44 -202 12z m137 -105 l31 -26 0 -190
0 -190 -29 -29 c-32 -32 -47 -35 -84 -18 -42 19 -47 48 -47 250 l0 189 33 20
c42 26 59 25 96 -6z"/>
<path d="M1335 1178 c-3 -13 -3 -32 -1 -43 3 -11 5 -23 5 -27 1 -5 30 -8 66
-8 l65 0 0 50 0 50 -65 0 c-59 0 -65 -2 -70 -22z"/>
</g>
</svg>
